<mxfile host="app.diagrams.net" modified="2023-04-20T19:12:28.933Z" agent="Mozilla/5.0 (Windows NT 10.0; Win64; x64) AppleWebKit/537.36 (KHTML, like Gecko) Chrome/112.0.0.0 Safari/537.36" version="21.2.1" etag="FYHTr7pi-M9F4GSgrRrs" type="github">
  <diagram name="PÃ¡gina-1" id="3wJSRG7PpdUn884t1aE6">
    <mxGraphModel>
      <root>
        <mxCell id="0" />
        <mxCell id="1" parent="0" />
      </root>
    </mxGraphModel>
  </diagram>
</mxfile>
